Kill.List.2011.PROPER.DVDRip.XviD-EXViD

 
http://imdb.com/title/tt1788391/

Stats
 Format                           : AVI
 Format/Info                      : Audio Video Interleave
 File size                        : 700 MiB
 Duration                         : 1h 31mn
 Overall bit rate                 : 1 069 Kbps
 Writing application              : Nandub v1.0rc2
 Writing library                  : Nandub build 1852/release

 Video
 ID                               : 0
 Format                           : MPEG-4 Visual
 Format profile                   : Advanced SimpleL5
 Format settings, BVOP            : 1
 Format settings, QPel            : No
 Format settings, GMC             : No warppoints
 Format settings, Matrix          : Default (H.263
 Codec ID                         : XVID
 Codec ID/Hint                    : XviD
 Duration                         : 1h 31mn
 Bit rate                         : 935 Kbps
 Width                            : 640 pixels
 Height                           : 272 pixels
 Display aspect ratio             : 2.35:1
 Frame rate                       : 25.000 fps
 Color space                      : YUV
 Chroma subsampling               : 4:2:0
 Bit depth                        : 8 bits
 Scan type                        : Progressive
 Compression mode                 : Lossy
 Bits/(PixelFrame)               : 0.215
 Stream size                      : 612 MiB (87
 Writing library                  : XviD 64

 Audio
 ID                               : 1
 Format                           : MPEG Audio
 Format version                   : Version 1
 Format profile                   : Layer 3
 Mode                             : Joint stereo
 Mode extension                   : MS Stereo
 Codec ID                         : 55
 Codec ID/Hint                    : MP3
 Duration                         : 1h 31mn
 Bit rate mode                    : Variable
 Bit rate                         : 121 Kbps
 Nominal bit rate                 : 128 Kbps
 Channel(s)                       : 2 channels
 Sampling rate                    : 48.0 KHz
 Compression mode                 : Lossy
 Stream size                      : 79.3 MiB (11
 Alignment                        : Aligned on interleaves
 Interleave, duration             : 24 ms (0.60 video frame
 Interleave, preload duration     : 488 ms
 Writing library                  : LAME3.98r
 Encoding settings                : -m j -V 4 -q 3 -lowpass 17 --abr 128

 Release notes
 RedBlade AR is 2.50:1. The correct AR for this movie is 2.35:1, so RedBlade AR is off by
 2.35-2.50)/2.35100 = 6,38

 enjoy

 Looking for
 75TB Archives
 DUTCH/FLEMiSH Archives